<svg xmlns="http://www.w3.org/2000/svg" viewBox="0 0 931.4 227.67"><title>lines_1</title><g id="Layer_2" data-name="Layer 2"><g id="Layer_1-2" data-name="Layer 1"><polyline points="930.33 41.63 826.96 81.13 723.59 28.46 620.22 81.13 516.85 107.47 413.48 28.46 310.11 120.64 206.74 41.63 103.37 2.12 0 2.12" fill="none" stroke="#fff" stroke-miterlimit="10" stroke-width="3" stroke-dasharray="12 4" opacity="0.6"/><polyline points="930.33 114.05 826.96 140.39 723.59 114.05 620.22 140.39 516.85 140.39 413.48 100.89 310.11 140.39 206.74 114.05 103.37 100.89 0 100.89" fill="none" stroke="#fff" stroke-miterlimit="10" stroke-width="2"/><polyline points="930.33 225.98 826.96 160.14 723.59 107.47 620.22 107.47 516.85 67.97 413.48 67.97 310.11 28.46 206.74 2.12 103.37 54.8 0 54.8" fill="none" stroke="#fff" stroke-miterlimit="10" stroke-width="4" opacity="0.8"/></g></g></svg>