<svg xmlns="http://www.w3.org/2000/svg" viewBox="0 0 437.60239 394.88309"><title>logo-full</title><g id="8a283e93-1e20-4ecf-b5a3-2067f9a232ce" data-name="Layer 2"><g id="a2b55cb9-ebb3-4299-86c4-b408ae3111e7" data-name="Layer 1"><path d="M1.35686,76.14551V6.31934h23.686a36.31266,36.31266,0,0,1,17.5249,4.19629,30.27516,30.27516,0,0,1,12.14648,11.8457,34.33706,34.33706,0,0,1,4.41895,17.14453v3.21338a34.51074,34.51074,0,0,1-4.26758,17.19287,30.36634,30.36634,0,0,1-12.02,11.89307,35.47167,35.47167,0,0,1-17.29736,4.34033ZM19.08342,19.31592V63.19678H25.245q7.62524,0,11.7168-5.15527,4.09131-5.15479,4.09082-15.32227V39.69775q0-10.11841-4.09082-15.25049-4.09058-5.13135-11.91895-5.13135Z" fill="#012946"/><path d="M97.913,76.14551a17.60365,17.60365,0,0,1-1.61572-4.65186q-4.697,5.61108-13.13135,5.61084a20.0205,20.0205,0,0,1-13.13086-4.436,13.83344,13.83344,0,0,1-5.4043-11.1499q0-8.44043,6.56592-12.75684Q77.7614,44.44556,90.287,44.4458h5.25244V41.69873q0-7.18066-6.51514-7.18018-6.06006,0-6.06055,5.68652H65.94426q0-7.51978,6.74219-12.21436,6.74194-4.69336,17.19678-4.69434,10.45386,0,16.51465,4.84375,6.06079,4.84424,6.21191,13.28418V64.396q.10107,7.14624,2.32324,10.93408v.81543ZM87.25676,65.59473a9.884,9.884,0,0,0,5.27783-1.29492,8.3238,8.3238,0,0,0,3.00488-2.92529V53.07813H90.59026q-8.8894,0-8.88867,7.57715A4.51545,4.51545,0,0,0,83.267,64.228,5.84482,5.84482,0,0,0,87.25676,65.59473Z" fill="#012946"/><path d="M141.54143,11.355V24.25537h8.98926V35.47754h-8.98926V59.21631q0,2.926,1.11084,4.07666,1.11035,1.15063,4.394,1.15088a26.266,26.266,0,0,0,4.24219-.2876V75.71387a32.96328,32.96328,0,0,1-9.5957,1.39063q-8.7876,0-12.97949-3.93213-4.19312-3.93237-4.19189-11.94189V35.47754h-6.96973V24.25537h6.96973V11.355Z" fill="#012946"/><path d="M187.69475,76.14551a17.60365,17.60365,0,0,1-1.61572-4.65186q-4.697,5.61108-13.13135,5.61084a20.0205,20.0205,0,0,1-13.13086-4.436,13.83344,13.83344,0,0,1-5.4043-11.1499q0-8.44043,6.56592-12.75684,6.5647-4.31616,19.09033-4.31592h5.25244V41.69873q0-7.18066-6.51514-7.18018-6.06006,0-6.06055,5.68652H155.726q0-7.51978,6.74219-12.21436,6.74194-4.69336,17.19678-4.69434,10.45386,0,16.51465,4.84375,6.06079,4.84424,6.21191,13.28418V64.396q.10107,7.14624,2.32324,10.93408v.81543ZM177.0385,65.59473a9.884,9.884,0,0,0,5.27783-1.29492,8.3238,8.3238,0,0,0,3.00488-2.92529V53.07813H180.372q-8.8894,0-8.88867,7.57715a4.51545,4.51545,0,0,0,1.56543,3.57275A5.84482,5.84482,0,0,0,177.0385,65.59473Z" fill="#012946"/><path d="M230.3969,56.91455l8.63574-32.65918h17.92871L239.1342,76.14551h-17.374L203.93254,24.25537h17.979Z" fill="#012946"/><path d="M256.891,49.7207a29.3446,29.3446,0,0,1,3.18164-13.83545,22.09548,22.09548,0,0,1,9.1416-9.32764,28.69884,28.69884,0,0,1,13.98926-3.26123q12.27246,0,19.34375,7.21729,7.06934,7.21875,7.07031,19.63867V50.728q0,12.1333-7.0957,19.25488-7.09717,7.12207-19.2168,7.12158-11.66748,0-18.7373-6.64209-7.0708-6.6416-7.626-18.00781ZM273.91155,50.728q0,7.19385,2.373,10.55078a8.04143,8.04143,0,0,0,7.02051,3.35693q9.09082,0,9.293-13.28418V49.7207q0-13.95557-9.39453-13.95557-8.53564,0-9.24219,12.0376Z" fill="#012946"/><path d="M349.44768,38.88232l-5.60547-.3833q-8.03029,0-10.30273,4.79541V76.14551H316.519V24.25537h15.96l.55566,6.666q4.292-7.62524,11.96875-7.625a17.44985,17.44985,0,0,1,4.748.5752Z" fill="#012946"/><path d="M380.75432,77.10449q-12.57568,0-20.35352-7.12158-7.77832-7.12134-7.77734-18.53564V50.10449a30.51946,30.51946,0,0,1,3.10547-14.05127,22.05209,22.05209,0,0,1,9.06543-9.42383,28.52381,28.52381,0,0,1,14.1416-3.333q11.51514,0,18.18164,6.78564,6.6665,6.78735,6.666,18.91943v6.28271H369.94573a11.51242,11.51242,0,0,0,3.99023,6.85791,12.279,12.279,0,0,0,7.97949,2.49365q8.08008,0,12.626-5.37109l7.77734,8.728a21.60865,21.60865,0,0,1-9.01465,6.64209A31.85318,31.85318,0,0,1,380.75432,77.10449ZM378.8344,35.76514q-7.4751,0-8.88867,9.3999H387.1176V43.918a7.75745,7.75745,0,0,0-2.07129-6.01855A8.49476,8.49476,0,0,0,378.8344,35.76514Z" fill="#012946"/><rect x="167.95125" y="168.29774" width="69.33061" height="154.88103" fill="#012946"/><rect x="83.97562" y="202.36578" width="69.33061" height="120.81298" fill="#012946"/><rect x="251.92687" y="181.7125" width="69.33061" height="141.46626" fill="#012946"/><polygon points="0 325.552 69.331 394.883 69.331 221.795 0 221.795 0 325.552" fill="#012946"/><polygon points="405.233 325.552 335.902 394.883 335.902 212.623 335.902 210.658 335.902 136.625 405.233 136.625 405.233 325.552" fill="#012946"/><path d="M425.44694,7.08393a4.39145,4.39145,0,0,1,1.65213.29615,3.81206,3.81206,0,0,1,1.261.81178,3.53607,3.53607,0,0,1,.80216,1.19392,3.83774,3.83774,0,0,1,.27691,1.4615,4.10525,4.10525,0,0,1-.506,2.08207,3.18126,3.18126,0,0,1-1.65271,1.33733v.03818a2.31306,2.31306,0,0,1,.917.46812,2.5901,2.5901,0,0,1,.59229.74474,3.49024,3.49024,0,0,1,.33462.94557,8.36271,8.36271,0,0,1,.14283,1.03156q.01924.3253.03848.76427c.01224.29294.035.592.06646.89777a5.98041,5.98041,0,0,0,.15332.8692,1.99537,1.99537,0,0,0,.3148.69723H426.8414a5.293,5.293,0,0,1-.30606-1.54719q-.05684-.89806-.17139-1.71946a2.71523,2.71523,0,0,0-.65-1.56643,2.23277,2.23277,0,0,0-1.62356-.49669h-2.99878v5.32978h-2.99937V7.08393Zm-1.06974,6.17012a2.26992,2.26992,0,0,0,1.54719-.45821,1.903,1.903,0,0,0,.51593-1.49006,1.81784,1.81784,0,0,0-.51593-1.44226,2.30329,2.30329,0,0,0-1.54719-.44888h-3.2856v3.83942Z" fill="#012946"/><path d="M423.42463,28.35552a14.17776,14.17776,0,1,1,14.17776-14.17776A14.19389,14.19389,0,0,1,423.42463,28.35552Zm0-25.96769a11.78993,11.78993,0,1,0,11.78993,11.78993A11.80313,11.80313,0,0,0,423.42463,2.38783Z" fill="#012946"/></g></g></svg>