<svg>
    <g>
        <path fill="none" stroke="currentcolor" stroke-linecap="square" class="st0" d="M10.3,4c0.4,0.2,0.6,0.6,0.8,1c0.6,1.1,1.3,2.3,1.9,3.4c0.2,0.3,0.4,0.5,0.5,0.8c0.4,0.7,0.2,1-0.2,1.4
            c-0.5,0.5-1,0.9-1.5,1.3c-0.3,0.3-0.7,0.6-1,1c-0.3,0.3-0.3,0.6-0.1,0.9c0.3,0.6,0.6,1.1,0.9,1.6c0.5,0.9,1.1,1.8,1.8,2.6
            c0.6,0.7,1.3,1.4,2,2c0.6,0.5,1.3,0.9,1.9,1.4c0.6,0.4,1.3,0.7,1.9,1.1c0.4,0.2,0.8,0.1,1.1-0.2c0.5-0.6,1-1.1,1.5-1.7
            c0.3-0.3,0.6-0.6,0.9-0.9c0.3-0.3,0.7-0.3,1.1,0c0.5,0.3,0.9,0.6,1.4,0.9c0.9,0.5,1.9,1.1,2.9,1.6c0.3,0.2,0.5,0.3,0.8,0.5
            c0.1,0.1,0.1,0.2,0.2,0.3c0,0.2,0,0.4,0,0.5c0,0,0,0,0,0.1c-0.1,0.5-0.2,0.9-0.3,1.4c-0.1,0.5-0.3,0.9-0.7,1.3
            c-0.4,0.3-0.8,0.6-1.2,0.9c-0.7,0.5-1.5,0.8-2.3,1c-0.3,0.1-0.6,0.1-0.9,0.2c-0.3,0-0.7,0-1,0c-0.4-0.1-0.7-0.1-1.1-0.2
            c-1.1-0.4-2.2-0.8-3.3-1.2c-0.9-0.3-1.7-0.7-2.6-1.3c-0.9-0.5-1.7-1.1-2.4-1.8c-0.7-0.6-1.4-1.2-2-1.8c-1-1-2-2.1-2.8-3.2
            c-0.6-0.9-1.2-1.7-1.7-2.7c-0.4-0.8-0.7-1.7-1-2.5c-0.2-0.7-0.5-1.3-0.7-2c-0.1-0.3-0.1-0.7-0.2-1.1c0-0.3,0-0.7,0-1
            c0-0.1,0-0.1,0-0.2C5.1,8.8,5.2,8.4,5.3,8c0.2-0.8,0.6-1.4,1-2.1c0.5-0.8,1.2-1.5,2.2-1.6C8.9,4.2,9.4,4.1,9.8,4
            C10,4,10.1,4,10.3,4z"/>
    </g>
</svg>
