<svg>
    <path fill="none" stroke="currentcolor" stroke-linecap="square" stroke-linejoin="square" class="st0" d="M12.4,25.7c9.3,0,14.4-7.7,14.4-14.4c0-0.2,0-0.4,0-0.7c1-0.7,1.8-1.6,2.5-2.6c-0.9,0.4-1.9,0.7-2.9,0.8
	c1-0.6,1.8-1.6,2.2-2.8c-1,0.6-2.1,1-3.2,1.2c-0.9-1-2.2-1.6-3.7-1.6c-2.8,0-5,2.3-5,5c0,0.4,0,0.8,0.1,1.2
	c-4.2-0.2-7.9-2.2-10.4-5.3C6,7.3,5.7,8.2,5.7,9.1c0,1.8,0.9,3.3,2.2,4.2c-0.8,0-1.6-0.3-2.3-0.6c0,0,0,0,0,0.1
	c0,2.4,1.7,4.5,4.1,4.9c-0.4,0.1-0.9,0.2-1.3,0.2c-0.3,0-0.6,0-0.9-0.1c0.6,2,2.5,3.5,4.7,3.5c-1.7,1.4-3.9,2.2-6.3,2.2
	c-0.4,0-0.8,0-1.2-0.1C6.9,24.8,9.6,25.7,12.4,25.7"/>
</svg>
