<svg xmlns="http://www.w3.org/2000/svg" viewBox="0 0 1863.41979 162.50749"><title>infinite_lines</title><g id="619c1f6e-8210-4b29-a833-9c442bc427cf" data-name="Layer 2"><g id="cb88a30c-f83e-44c8-a2a7-7f838b556c69" data-name="Layer 1"><polyline points="1862.176 41.629 1758.806 81.133 1655.436 28.46 1552.066 81.133 1448.696 107.469 1345.326 28.46 1241.956 120.638 1138.586 41.629 1035.216 2.124 930.9 41.629 827.53 81.133 724.16 28.46 620.79 81.133 517.42 107.469 414.05 28.46 310.68 120.638 207.31 41.629 103.939 2.124 0.569 44.544" fill="none" stroke="#fff" stroke-miterlimit="10" stroke-width="3" stroke-dasharray="12 4" opacity="0.6"/><polyline points="1862.176 114.053 1758.806 140.39 1655.436 114.053 1552.066 140.39 1448.696 140.39 1345.326 100.885 1241.956 140.39 1138.586 114.053 1035.216 100.885 931.038 113.839 827.53 140.39 724.16 114.053 620.79 140.39 517.42 140.39 414.05 100.885 310.68 140.39 207.31 114.053 103.939 100.885 0.569 114.077" fill="none" stroke="#fff" stroke-miterlimit="10" stroke-width="2"/><polyline points="1862.176 78.078 1758.806 160.142 1655.436 107.469 1552.066 107.469 1448.696 67.965 1345.326 67.965 1241.956 28.46 1138.586 2.124 1035.216 54.797 930.9 78.078 827.53 160.142 724.16 107.469 620.79 107.469 517.42 67.965 414.05 67.965 310.68 28.46 207.31 2.124 103.939 54.797 0.569 78.078" fill="none" stroke="#fff" stroke-miterlimit="10" stroke-width="4" opacity="0.8"/></g></g></svg>